<svg width="134" height="37" viewBox="0 0 134 37" fill="none" xmlns="http://www.w3.org/2000/svg">
<path d="M21.02 5.8C21.2107 5.8 21.3753 5.86933 21.514 6.008C21.6527 6.14667 21.722 6.31133 21.722 6.502V10.688C21.722 10.8787 21.6527 11.0433 21.514 11.182C21.3753 11.3207 21.2107 11.39 21.02 11.39H15.43V23.298C15.43 23.4887 15.3607 23.6533 15.222 23.792C15.0833 23.9307 14.9187 24 14.728 24H9.372C9.18133 24 9.01667 23.9307 8.878 23.792C8.73933 23.6533 8.67 23.4887 8.67 23.298V11.39H3.08C2.88933 11.39 2.72467 11.3207 2.586 11.182C2.44733 11.0433 2.378 10.8787 2.378 10.688V6.502C2.378 6.31133 2.44733 6.14667 2.586 6.008C2.72467 5.86933 2.88933 5.8 3.08 5.8H21.02ZM44.4618 23.194C44.4965 23.2633 44.5138 23.3413 44.5138 23.428C44.5138 23.584 44.4532 23.7227 44.3318 23.844C44.2278 23.948 44.0978 24 43.9418 24H38.0398C37.7972 24 37.5718 23.9393 37.3638 23.818C37.1732 23.6967 37.0345 23.5407 36.9478 23.35L34.6598 18.202H32.4758V23.298C32.4758 23.4887 32.4065 23.6533 32.2678 23.792C32.1292 23.9307 31.9645 24 31.7738 24H26.1578C25.9672 24 25.8025 23.9307 25.6638 23.792C25.5252 23.6533 25.4558 23.4887 25.4558 23.298V6.502C25.4558 6.31133 25.5252 6.14667 25.6638 6.008C25.8025 5.86933 25.9672 5.8 26.1578 5.8H36.2718C37.8318 5.8 39.1925 6.05133 40.3538 6.554C41.5325 7.05667 42.4338 7.78467 43.0578 8.738C43.6818 9.69133 43.9938 10.8093 43.9938 12.092C43.9938 14.4493 43.0838 16.1567 41.2638 17.214L44.4618 23.194ZM35.7258 13.392C36.1072 13.392 36.4018 13.2707 36.6098 13.028C36.8178 12.768 36.9218 12.4473 36.9218 12.066C36.9218 11.6847 36.8178 11.3553 36.6098 11.078C36.4192 10.7833 36.1245 10.636 35.7258 10.636H32.4758V13.392H35.7258ZM65.9017 16.486C65.9017 19.138 65.0177 21.0967 63.2497 22.362C61.499 23.6273 59.159 24.26 56.2297 24.26C53.3004 24.26 50.9517 23.6273 49.1837 22.362C47.433 21.0967 46.5577 19.1207 46.5577 16.434V13.366C46.5577 11.598 46.9737 10.1333 47.8057 8.972C48.655 7.79333 49.8077 6.92667 51.2637 6.372C52.7197 5.81733 54.375 5.54 56.2297 5.54C58.0844 5.54 59.731 5.81733 61.1697 6.372C62.6257 6.92667 63.7784 7.78467 64.6277 8.946C65.477 10.1073 65.9017 11.5633 65.9017 13.314V16.486ZM53.5777 16.98C53.5777 17.6907 53.8117 18.2367 54.2797 18.618C54.765 18.9993 55.415 19.19 56.2297 19.19C57.0444 19.19 57.6857 18.9993 58.1537 18.618C58.639 18.2193 58.8817 17.6647 58.8817 16.954V12.846C58.8817 12.1353 58.639 11.5893 58.1537 11.208C57.6857 10.8093 57.0444 10.61 56.2297 10.61C55.415 10.61 54.765 10.8007 54.2797 11.182C53.8117 11.5633 53.5777 12.1093 53.5777 12.82V16.98ZM87.9655 5.8C88.1215 5.8 88.2515 5.86067 88.3555 5.982C88.4769 6.086 88.5375 6.216 88.5375 6.372L88.5115 6.554L82.5315 23.142C82.4449 23.3847 82.3062 23.5927 82.1155 23.766C81.9249 23.922 81.6735 24 81.3615 24H75.3035C74.9915 24 74.7402 23.922 74.5495 23.766C74.3589 23.5927 74.2289 23.4107 74.1595 23.22L68.1275 6.554L68.1015 6.372C68.1015 6.216 68.1535 6.086 68.2575 5.982C68.3789 5.86067 68.5175 5.8 68.6735 5.8H74.1595C74.4715 5.8 74.7229 5.89533 74.9135 6.086C75.1215 6.25933 75.2602 6.45 75.3295 6.658L78.3195 16.616L81.3095 6.658C81.3789 6.43267 81.5089 6.23333 81.6995 6.06C81.8902 5.88667 82.1502 5.8 82.4795 5.8H87.9655ZM110.081 16.486C110.081 19.138 109.197 21.0967 107.429 22.362C105.679 23.6273 103.339 24.26 100.409 24.26C97.48 24.26 95.1314 23.6273 93.3634 22.362C91.6127 21.0967 90.7374 19.1207 90.7374 16.434V13.366C90.7374 11.598 91.1534 10.1333 91.9854 8.972C92.8347 7.79333 93.9874 6.92667 95.4434 6.372C96.8994 5.81733 98.5547 5.54 100.409 5.54C102.264 5.54 103.911 5.81733 105.349 6.372C106.805 6.92667 107.958 7.78467 108.807 8.946C109.657 10.1073 110.081 11.5633 110.081 13.314V16.486ZM97.7574 16.98C97.7574 17.6907 97.9914 18.2367 98.4594 18.618C98.9447 18.9993 99.5947 19.19 100.409 19.19C101.224 19.19 101.865 18.9993 102.333 18.618C102.819 18.2193 103.061 17.6647 103.061 16.954V12.846C103.061 12.1353 102.819 11.5893 102.333 11.208C101.865 10.8093 101.224 10.61 100.409 10.61C99.5947 10.61 98.9447 10.8007 98.4594 11.182C97.9914 11.5633 97.7574 12.1093 97.7574 12.82V16.98ZM130.975 18.67C131.166 18.67 131.331 18.7393 131.469 18.878C131.608 19.0167 131.677 19.1813 131.677 19.372V23.298C131.677 23.4887 131.608 23.6533 131.469 23.792C131.331 23.9307 131.166 24 130.975 24H115.791C115.601 24 115.436 23.9307 115.297 23.792C115.159 23.6533 115.089 23.4887 115.089 23.298V6.502C115.089 6.31133 115.159 6.14667 115.297 6.008C115.436 5.86933 115.601 5.8 115.791 5.8H121.407C121.598 5.8 121.763 5.86933 121.901 6.008C122.04 6.14667 122.109 6.31133 122.109 6.502V18.67H130.975Z" fill="white"/>
<line y1="36" x2="134" y2="36" stroke="white" stroke-width="2"/>
</svg>
